{
  "accessors": [
    {
      "bufferView": 2,
      "componentType": 5126,
      "count": 1482,
      "max": [
        115.16069030761719,
        115.16069030761719,
        153.98097229003906
      ],
      "min": [
        -115.16069030761719,
        -115.16069030761719,
        -112.53603363037109
      ],
      "type": "VEC3"
    },
    {
      "bufferView": 2,
      "byteOffset": 17784,
      "componentType": 5126,
      "count": 1482,
      "max": [
        0.99070978164672852,
        0.99070978164672852,
        0.9999459981918335
      ],
      "min": [
        -0.99070978164672852,
        -0.99070978164672852,
        -0.9999459981918335
      ],
      "type": "VEC3"
    },
    {
      "bufferView": 1,
      "componentType": 5126,
      "count": 1482,
      "max": [
        1,
        1
      ],
      "min": [
        0,
        0
      ],
      "type": "VEC2"
    },
    {
      "bufferView": 0,
      "componentType": 5125,
      "count": 5946,
      "max": [
        1481
      ],
      "min": [
        0
      ],
      "type": "SCALAR"
    },
    {
      "bufferView": 2,
      "byteOffset": 35568,
      "componentType": 5126,
      "count": 164,
      "max": [
        76.060577392578125,
        76.060577392578125,
        153.98097229003906
      ],
      "min": [
        -76.060592651367188,
        -76.060592651367188,
        -24.461313247680664
      ],
      "type": "VEC3"
    },
    {
      "bufferView": 2,
      "byteOffset": 37536,
      "componentType": 5126,
      "count": 164,
      "max": [
        0.95557427406311035,
        0.95557427406311035,
        0.99692070484161377
      ],
      "min": [
        -0.95557427406311035,
        -0.95557427406311035,
        0.29475060105323792
      ],
      "type": "VEC3"
    },
    {
      "bufferView": 1,
      "byteOffset": 11856,
      "componentType": 5126,
      "count": 164,
      "max": [
        1,
        0.89736580848693848
      ],
      "min": [
        0,
        0.11205781251192093
      ],
      "type": "VEC2"
    },
    {
      "bufferView": 0,
      "byteOffset": 23784,
      "componentType": 5125,
      "count": 474,
      "max": [
        163
      ],
      "min": [
        0
      ],
      "type": "SCALAR"
    }
  ],
  "asset": {
    "extras": {
      "author": "younesbelhit (https://sketchfab.com/younesbelhit)",
      "license": "CC-BY-4.0 (http://creativecommons.org/licenses/by/4.0/)",
      "source": "https://sketchfab.com/3d-models/traffic-road-cone-e08828678dab474baac6ecd120fa0b3c",
      "title": "Traffic Road Cone"
    },
    "generator": "Sketchfab-9.81.0",
    "version": "2.0"
  },
  "bufferViews": [
    {
      "buffer": 0,
      "byteLength": 25680,
      "byteOffset": 0,
      "name": "floatBufferViews",
      "target": 34963
    },
    {
      "buffer": 0,
      "byteLength": 13168,
      "byteOffset": 25680,
      "byteStride": 8,
      "name": "floatBufferViews",
      "target": 34962
    },
    {
      "buffer": 0,
      "byteLength": 39504,
      "byteOffset": 38848,
      "byteStride": 12,
      "name": "floatBufferViews",
      "target": 34962
    }
  ],
  "buffers": [
    {
      "byteLength": 78352,
      "uri": "scene.bin"
    }
  ],
  "materials": [
    {
      "doubleSided": true,
      "emissiveFactor": [
        0,
        0,
        0
      ],
      "name": "Orage_Traffic_Cone",
      "pbrMetallicRoughness": {
        "baseColorFactor": [
          0.80000000000000004,
          0.13025800000000001,
          0.0092220400000000008,
          1
        ],
        "metallicFactor": 0,
        "roughnessFactor": 0.94098874552483835
      }
    },
    {
      "doubleSided": true,
      "emissiveFactor": [
        0,
        0,
        0
      ],
      "name": "White_Traffic_Cone",
      "pbrMetallicRoughness": {
        "baseColorFactor": [
          0.80000000000000004,
          0.80000000000000004,
          0.80000000000000004,
          1
        ],
        "metallicFactor": 0,
        "roughnessFactor": 0.82111456180001685
      }
    }
  ],
  "meshes": [
    {
      "name": "Traffic Cone_Orage Traffic Cone_0",
      "primitives": [
        {
          "attributes": {
            "NORMAL": 1,
            "POSITION": 0,
            "TEXCOORD_0": 2
          },
          "indices": 3,
          "material": 0,
          "mode": 4
        }
      ]
    },
    {
      "name": "Traffic Cone_White Traffic Cone_0",
      "primitives": [
        {
          "attributes": {
            "NORMAL": 5,
            "POSITION": 4,
            "TEXCOORD_0": 6
          },
          "indices": 7,
          "material": 1,
          "mode": 4
        }
      ]
    }
  ],
  "nodes": [
    {
      "children": [
        1
      ],
      "name": "RootNode (gltf orientation matrix)",
      "rotation": [
        -0.70710678118654746,
        -0,
        -0,
        0.70710678118654757
      ]
    },
    {
      "children": [
        2
      ],
      "matrix": [
        1,
        3.1450057482662597e-32,
        1.6081226229577292e-16,
        0,
        -1.4104348231229717e-32,
        -1,
        2.832769343193999e-16,
        0,
        1.6081226229577292e-16,
        -2.832769343193999e-16,
        -1,
        0,
        1.0640793801641735e-14,
        0.011020704172551632,
        -132.3427734375,
        1
      ],
      "name": "RootNode (model correction matrix)"
    },
    {
      "children": [
        3
      ],
      "matrix": [
        1,
        0,
        0,
        0,
        0,
        -1,
        0,
        0,
        0,
        0,
        -1,
        0,
        0,
        0,
        0,
        1
      ],
      "name": "b164eb3a1cf140d1b69fa54e58957e51.fbx"
    },
    {
      "children": [
        4
      ],
      "name": "RootNode"
    },
    {
      "children": [
        5,
        6
      ],
      "matrix": [
        0.4941861629486084,
        0,
        0,
        0,
        0,
        0.4941861629486084,
        0,
        0,
        0,
        0,
        0.4941861629486084,
        0,
        0,
        0,
        55.938552856445312,
        1
      ],
      "name": "Traffic Cone"
    },
    {
      "mesh": 0,
      "name": "Traffic Cone_Orage Traffic Cone_0"
    },
    {
      "mesh": 1,
      "name": "Traffic Cone_White Traffic Cone_0"
    }
  ],
  "scene": 0,
  "scenes": [
    {
      "name": "OSG_Scene",
      "nodes": [
        0
      ]
    }
  ]
}

